<svg width="204.000000" height="155.999985" viewBox="0 0 204 156" fill="none" xmlns="http://www.w3.org/2000/svg" xmlns:xlink="http://www.w3.org/1999/xlink">
	<desc>
			Created with Pixso.
	</desc>
	<defs>
		<filter id="filter_2_256_dd" x="90.000000" y="26.000000" width="114.000000" height="122.000000" filterUnits="userSpaceOnUse" color-interpolation-filters="sRGB">
			<feFlood flood-opacity="0" result="BackgroundImageFix"/>
			<feColorMatrix in="SourceAlpha" type="matrix" values="0 0 0 0 0 0 0 0 0 0 0 0 0 0 0 0 0 0 127 0" result="hardAlpha"/>
			<feOffset dx="0" dy="16"/>
			<feGaussianBlur stdDeviation="6.66667"/>
			<feComposite in2="hardAlpha" operator="out" k2="-1" k3="1"/>
			<feColorMatrix type="matrix" values="0 0 0 0 0 0 0 0 0 0 0 0 0 0 0 0 0 0 0.094 0"/>
			<feBlend mode="normal" in2="BackgroundImageFix" result="effect_dropShadow_1"/>
			<feBlend mode="normal" in="SourceGraphic" in2="effect_dropShadow_1" result="shape"/>
		</filter>
		<filter id="filter_2_270_dd" x="0.000000" y="20.000000" width="120.000000" height="125.000000" filterUnits="userSpaceOnUse" color-interpolation-filters="sRGB">
			<feFlood flood-opacity="0" result="BackgroundImageFix"/>
			<feColorMatrix in="SourceAlpha" type="matrix" values="0 0 0 0 0 0 0 0 0 0 0 0 0 0 0 0 0 0 127 0" result="hardAlpha"/>
			<feOffset dx="0" dy="16"/>
			<feGaussianBlur stdDeviation="6.66667"/>
			<feComposite in2="hardAlpha" operator="out" k2="-1" k3="1"/>
			<feColorMatrix type="matrix" values="0 0 0 0 0 0 0 0 0 0 0 0 0 0 0 0 0 0 0.094 0"/>
			<feBlend mode="normal" in2="BackgroundImageFix" result="effect_dropShadow_1"/>
			<feBlend mode="normal" in="SourceGraphic" in2="effect_dropShadow_1" result="shape"/>
		</filter>
		<filter id="filter_2_281_dd" x="33.000000" y="0.000000" width="106.000000" height="116.000000" filterUnits="userSpaceOnUse" color-interpolation-filters="sRGB">
			<feFlood flood-opacity="0" result="BackgroundImageFix"/>
			<feColorMatrix in="SourceAlpha" type="matrix" values="0 0 0 0 0 0 0 0 0 0 0 0 0 0 0 0 0 0 127 0" result="hardAlpha"/>
			<feOffset dx="0" dy="16"/>
			<feGaussianBlur stdDeviation="6.66667"/>
			<feComposite in2="hardAlpha" operator="out" k2="-1" k3="1"/>
			<feColorMatrix type="matrix" values="0 0 0 0 0 0 0 0 0 0 0 0 0 0 0 0 0 0 0.094 0"/>
			<feBlend mode="normal" in2="BackgroundImageFix" result="effect_dropShadow_1"/>
			<feBlend mode="normal" in="SourceGraphic" in2="effect_dropShadow_1" result="shape"/>
		</filter>
		<filter id="filter_2_306_dd" x="71.000000" y="4.000000" width="113.000000" height="120.000000" filterUnits="userSpaceOnUse" color-interpolation-filters="sRGB">
			<feFlood flood-opacity="0" result="BackgroundImageFix"/>
			<feColorMatrix in="SourceAlpha" type="matrix" values="0 0 0 0 0 0 0 0 0 0 0 0 0 0 0 0 0 0 127 0" result="hardAlpha"/>
			<feOffset dx="0" dy="16"/>
			<feGaussianBlur stdDeviation="6.66667"/>
			<feComposite in2="hardAlpha" operator="out" k2="-1" k3="1"/>
			<feColorMatrix type="matrix" values="0 0 0 0 0 0 0 0 0 0 0 0 0 0 0 0 0 0 0.094 0"/>
			<feBlend mode="normal" in2="BackgroundImageFix" result="effect_dropShadow_1"/>
			<feBlend mode="normal" in="SourceGraphic" in2="effect_dropShadow_1" result="shape"/>
		</filter>
		<filter id="filter_2_317_dd" x="45.000000" y="40.999939" width="119.000000" height="115.000046" filterUnits="userSpaceOnUse" color-interpolation-filters="sRGB">
			<feFlood flood-opacity="0" result="BackgroundImageFix"/>
			<feColorMatrix in="SourceAlpha" type="matrix" values="0 0 0 0 0 0 0 0 0 0 0 0 0 0 0 0 0 0 127 0" result="hardAlpha"/>
			<feOffset dx="0" dy="16"/>
			<feGaussianBlur stdDeviation="6.66667"/>
			<feComposite in2="hardAlpha" operator="out" k2="-1" k3="1"/>
			<feColorMatrix type="matrix" values="0 0 0 0 0.25882 0 0 0 0 0.6 0 0 0 0 0.88235 0 0 0 0.3 0"/>
			<feBlend mode="normal" in2="BackgroundImageFix" result="effect_dropShadow_1"/>
			<feBlend mode="normal" in="SourceGraphic" in2="effect_dropShadow_1" result="shape"/>
		</filter>
		<linearGradient x1="104.500008" y1="44.999939" x2="104.500008" y2="119.999985" id="paint_linear_2_318_0" gradientUnits="userSpaceOnUse">
			<stop stop-color="#7A62E4"/>
			<stop offset="1.000000" stop-color="#656EE4"/>
		</linearGradient>
	</defs>
	<g filter="url(#filter_2_256_dd)">
		<path id="Vector" d="M184 69.9L151.32 111.45C150.83 112.07 149.93 112.18 149.3 111.69L110.54 81.32C109.92 80.83 109.81 79.92 110.3 79.3L148.64 30.54C149.13 29.92 150.03 29.81 150.66 30.3L182.19 55.01L182.77 59.8L183.39 64.92L184 69.9Z" fill="#000000" fill-opacity="1.000000" fill-rule="evenodd"/>
	</g>
	<path id="Vector" d="M184 69.9L151.32 111.45C150.83 112.07 149.93 112.18 149.3 111.69L110.54 81.32C109.92 80.83 109.81 79.92 110.3 79.3L148.64 30.54C149.13 29.92 150.03 29.81 150.66 30.3L182.19 55.01L182.77 59.8L183.39 64.92L184 69.9Z" fill="#FFFFFF" fill-opacity="1.000000" fill-rule="evenodd"/>
	<path id="Path" d="M177 64C177.03 64.25 176.46 65.45 184.1 72L185 70.9L177 64Z" fill="#CECECE" fill-opacity="1.000000" fill-rule="evenodd"/>
	<path id="Path" d="M177.47 62.19C176.71 63.17 176.88 64.58 177.85 65.34L185 71L183.08 55L177.47 62.19Z" fill="#EDEDED" fill-opacity="1.000000" fill-rule="evenodd"/>
	<path id="Shape" d="M133.09 85.91C133.25 85.68 133.09 85.38 132.78 85.4C132.35 85.44 131.93 85.44 131.51 85.39L130.93 85.27C130.53 85.22 130.45 85 130.7 84.6C131.14 84.55 131.05 83.94 130.61 83.97C130.07 84.01 129.34 84.07 128.89 83.7C128.75 83.57 128.64 83.42 128.55 83.26C128.7 83.26 128.86 83.23 129.01 83.2C129.14 83.17 129.2 83.05 129.23 82.95C129.31 82.66 129.3 82.43 129.32 82.2C131.3 81.88 133.36 81.14 134.86 80.08C135.15 79.88 134.94 79.5 134.61 79.51C133.05 79.55 131.44 79.83 130.04 80.49C129.55 80.73 129.06 81.01 128.81 81.49C128.79 81.54 128.77 81.59 128.75 81.64C128.29 81.7 127.83 81.74 127.37 81.75C126.75 81.77 126.14 81.69 125.55 81.53C125.12 81.4 124.48 81.22 124.48 80.76C125.58 80.86 126.66 80.69 126.86 79.75C127.17 78.34 124.71 79.19 123.96 80.06C123.45 79.97 122.95 79.84 122.47 79.66C122.06 79.51 121.79 80.1 122.2 80.25C122.69 80.42 123.19 80.55 123.71 80.65C123.55 82.17 126.51 82.42 127.6 82.38C127.93 82.37 128.26 82.35 128.6 82.31C128.56 82.68 128.6 82.64 128.01 82.64C127.71 82.64 127.51 82.9 127.68 83.14C127.99 83.59 128.25 84.14 128.78 84.41C128.95 84.49 129.13 84.54 129.31 84.57C129.26 84.65 129.26 84.74 129.29 84.82C129.71 85.79 130.99 86.04 132.09 86.06C131.32 86.8 130.29 87.25 129.19 87.35C127.5 87.47 126.28 86.39 125.2 85.36C124.9 85.06 124.34 85.44 124.65 85.73C125.83 86.86 127.13 88.01 128.94 87.99C130.52 87.98 132.25 87.16 133.09 85.91ZM125.61 79.68C126.29 79.65 125.54 80.06 125.28 80.1C125.11 80.13 124.94 80.14 124.77 80.13C124.91 79.97 125.42 79.69 125.61 79.68L125.61 79.68ZM129.85 81.32C130.27 80.99 130.99 80.79 131.51 80.63C132.09 80.45 132.69 80.33 133.3 80.25C132.16 80.82 130.94 81.24 129.68 81.49C129.73 81.43 129.79 81.38 129.85 81.32L129.85 81.32Z" fill="#4684AF" fill-opacity="1.000000" fill-rule="evenodd"/>
	<path id="Rectangle" d="M157.64 45.84L173.01 57.91C173.61 58.38 173.71 59.24 173.24 59.84C172.77 60.43 171.91 60.54 171.31 60.07L155.94 48C155.34 47.54 155.24 46.67 155.71 46.08C156.18 45.48 157.04 45.37 157.64 45.84Z" fill="#D2D4D8" fill-opacity="1.000000" fill-rule="evenodd"/>
	<path id="Path" d="M173.27 70.96L144.06 47.22C143.99 47.16 143.97 47.05 144.03 46.98L145.48 45.06C145.54 44.99 145.65 44.97 145.72 45.03L174.93 68.76C175 68.82 175.02 68.93 174.96 69.01L173.51 70.93C173.48 70.96 173.44 70.99 173.39 70.99C173.35 71 173.3 70.99 173.27 70.96Z" fill="#D2D4D8" fill-opacity="1.000000" fill-rule="evenodd"/>
	<path id="Path" d="M170.27 75.96L141.06 52.22C140.99 52.16 140.97 52.05 141.03 51.98L142.48 50.06C142.54 49.99 142.65 49.97 142.72 50.03L171.93 73.77C172 73.83 172.02 73.94 171.96 74.01L170.51 75.93C170.45 76.01 170.34 76.02 170.27 75.96Z" fill="#D2D4D8" fill-opacity="1.000000" fill-rule="evenodd"/>
	<path id="Path" d="M166.27 79.96L137.06 56.22C136.99 56.16 136.97 56.05 137.03 55.98L138.48 54.06C138.54 53.99 138.65 53.97 138.72 54.03L167.93 77.77C167.97 77.79 167.99 77.84 167.99 77.88C168 77.93 167.99 77.98 167.96 78.01L166.51 79.93C166.45 80 166.34 80.02 166.27 79.96Z" fill="#D2D4D8" fill-opacity="1.000000" fill-rule="evenodd"/>
	<path id="Path" d="M163.27 83.96L134.06 60.23C133.99 60.17 133.97 60.05 134.03 59.98L135.48 58.06C135.54 57.99 135.65 57.97 135.72 58.03L164.93 81.77C165 81.83 165.02 81.94 164.96 82.01L163.51 83.93C163.45 84 163.34 84.02 163.27 83.96Z" fill="#D2D4D8" fill-opacity="1.000000" fill-rule="evenodd"/>
	<path id="Path" d="M160.27 89.96L131.06 66.23C130.99 66.16 130.97 66.05 131.03 65.98L132.48 64.06C132.54 63.99 132.65 63.97 132.72 64.03L161.93 87.76C162 87.83 162.02 87.94 161.96 88.01L160.51 89.93C160.45 90 160.34 90.02 160.27 89.96Z" fill="#D2D4D8" fill-opacity="1.000000" fill-rule="evenodd"/>
	<path id="Path" d="M157.27 92.96L128.06 69.22C127.99 69.16 127.97 69.05 128.03 68.98L129.48 67.06C129.54 66.99 129.65 66.97 129.72 67.03L158.93 90.76C159 90.83 159.02 90.94 158.96 91.01L157.51 92.93C157.45 93 157.34 93.02 157.27 92.96Z" fill="#D2D4D8" fill-opacity="1.000000" fill-rule="evenodd"/>
	<path id="Shape" d="M141.72 100.04C140.29 98.91 139.67 97.04 140.16 95.28C140.65 93.53 142.15 92.25 143.96 92.03C145.76 91.81 147.52 92.7 148.42 94.29C149.31 95.87 149.16 97.84 148.04 99.27C146.5 101.23 143.67 101.57 141.72 100.04ZM146.67 93.72C145.14 92.52 142.93 92.79 141.72 94.32C140.52 95.85 140.78 98.07 142.32 99.27C143.85 100.47 146.06 100.21 147.27 98.68C148.47 97.14 148.2 94.93 146.67 93.72Z" fill="#D2D4D8" fill-opacity="1.000000" fill-rule="evenodd"/>
	<g filter="url(#filter_2_270_dd)">
		<path id="Vector" d="M99.86 78.9L56.38 108.94C56.25 109.04 56.07 109 55.98 108.86L20.04 54.5C19.95 54.37 19.99 54.18 20.12 54.09L63.61 24.05C63.74 23.95 63.92 23.99 64.01 24.13L99.94 78.49C99.99 78.55 100.01 78.63 99.99 78.71C99.97 78.79 99.93 78.86 99.86 78.9Z" fill="#000000" fill-opacity="1.000000" fill-rule="evenodd"/>
	</g>
	<path id="Vector" d="M99.86 78.9L56.38 108.94C56.25 109.04 56.07 109 55.98 108.86L20.04 54.5C19.95 54.37 19.99 54.18 20.12 54.09L63.61 24.05C63.74 23.95 63.92 23.99 64.01 24.13L99.94 78.49C99.99 78.55 100.01 78.63 99.99 78.71C99.97 78.79 99.93 78.86 99.86 78.9Z" fill="#FFFFFF" fill-opacity="1.000000" fill-rule="evenodd"/>
	<path id="Path" d="M43.91 46.71L29.77 56.96C29.68 57.02 29.56 57 29.5 56.9L28.03 54.57C27.97 54.47 27.99 54.35 28.08 54.28L42.22 44.03C42.31 43.97 42.43 43.99 42.49 44.09L43.96 46.42C44.02 46.52 44 46.64 43.91 46.71Z" fill="#D2D4D8" fill-opacity="1.000000" fill-rule="evenodd"/>
	<path id="Path" d="M67.91 39.57L32.82 62.96C32.73 63.02 32.61 63 32.55 62.91L31.03 60.69C30.97 60.6 30.99 60.48 31.08 60.42L66.17 37.03C66.21 37 66.27 36.99 66.32 37C66.37 37.01 66.41 37.04 66.44 37.08L67.96 39.3C68.02 39.39 68 39.51 67.91 39.57Z" fill="#D2D4D8" fill-opacity="1.000000" fill-rule="evenodd"/>
	<path id="Path" d="M71.91 45.57L36.82 68.96C36.78 68.99 36.73 69 36.68 68.99C36.62 68.98 36.58 68.95 36.55 68.91L35.03 66.69C35 66.65 34.99 66.6 35 66.54C35.01 66.49 35.04 66.45 35.08 66.42L70.17 43.03C70.21 43 70.27 42.99 70.32 43C70.37 43.01 70.41 43.04 70.44 43.08L71.96 45.3C72.02 45.39 72 45.51 71.91 45.57Z" fill="#D2D4D8" fill-opacity="1.000000" fill-rule="evenodd"/>
	<path id="Path" d="M76.91 51.57L41.82 74.96C41.78 74.99 41.72 75 41.67 74.99C41.62 74.98 41.58 74.95 41.55 74.91L40.03 72.69C39.97 72.6 39.99 72.48 40.08 72.42L75.17 49.03C75.26 48.97 75.38 48.99 75.44 49.08L76.96 51.3C76.99 51.34 77 51.39 76.99 51.44C76.98 51.49 76.95 51.54 76.91 51.57Z" fill="#D2D4D8" fill-opacity="1.000000" fill-rule="evenodd"/>
	<path id="Path" d="M79.91 56.57L44.82 79.96C44.73 80.02 44.61 80 44.55 79.91L43.03 77.69C43 77.65 42.99 77.6 43 77.55C43.01 77.49 43.04 77.45 43.08 77.42L78.17 54.03C78.21 54 78.26 53.99 78.32 54C78.37 54.01 78.41 54.04 78.44 54.08L79.96 56.3C80.02 56.39 80 56.51 79.91 56.57Z" fill="#D2D4D8" fill-opacity="1.000000" fill-rule="evenodd"/>
	<path id="Path" d="M83.91 62.62L58.79 79.96C58.7 80.02 58.58 80 58.52 79.91L57.03 77.65C57 77.61 56.99 77.55 57 77.5C57.01 77.45 57.04 77.4 57.08 77.37L82.2 60.03C82.29 59.97 82.41 59.99 82.47 60.08L83.96 62.34C84.02 62.43 84 62.55 83.91 62.62Z" fill="#D2D4D8" fill-opacity="1.000000" fill-rule="evenodd"/>
	<path id="Path" d="M87.91 68.57L52.82 91.96C52.73 92.02 52.61 92 52.55 91.91L51.03 89.69C50.97 89.6 50.99 89.48 51.08 89.42L86.17 66.03C86.26 65.97 86.38 65.99 86.44 66.08L87.96 68.3C87.99 68.34 88 68.39 87.99 68.44C87.98 68.49 87.95 68.54 87.91 68.57Z" fill="#D2D4D8" fill-opacity="1.000000" fill-rule="evenodd"/>
	<path id="Path" d="M91.91 74.57L56.82 97.96C56.73 98.02 56.61 98 56.55 97.91L55.03 95.69C55 95.65 54.99 95.6 55 95.55C55.01 95.5 55.04 95.45 55.08 95.42L90.17 72.03C90.26 71.97 90.38 71.99 90.44 72.08L91.96 74.3C92.02 74.39 92 74.51 91.91 74.57Z" fill="#D2D4D8" fill-opacity="1.000000" fill-rule="evenodd"/>
	<g filter="url(#filter_2_281_dd)">
		<path id="Vector" d="M65.22 79.99C65.03 80.02 64.85 79.9 64.81 79.71L53 14.01C52.97 13.81 53.09 13.63 53.28 13.6L106.77 4C106.96 3.97 107.14 4.09 107.18 4.28L118.99 69.98C119.02 70.17 118.9 70.36 118.71 70.39L65.22 79.99Z" fill="#000000" fill-opacity="1.000000" fill-rule="evenodd"/>
	</g>
	<path id="Vector" d="M65.22 79.99C65.03 80.02 64.85 79.9 64.81 79.71L53 14.01C52.97 13.81 53.09 13.63 53.28 13.6L106.77 4C106.96 3.97 107.14 4.09 107.18 4.28L118.99 69.98C119.02 70.17 118.9 70.36 118.71 70.39L65.22 79.99Z" fill="#FFFFFF" fill-opacity="1.000000" fill-rule="evenodd"/>
	<path id="Rectangle" d="M71.29 42.34L77.74 41.18L81.02 59.44L74.57 60.6L71.29 42.34Z" fill="#D2D4D8" fill-opacity="1.000000" fill-rule="evenodd"/>
	<path id="Rectangle" d="M79.88 45.87L86.34 44.71L88.73 58.05L82.28 59.21L79.88 45.87Z" fill="#D2D4D8" fill-opacity="1.000000" fill-rule="evenodd"/>
	<path id="Rectangle" d="M88.21 48.45L94.66 47.29L96.35 56.69L89.9 57.85L88.21 48.45Z" fill="#D2D4D8" fill-opacity="1.000000" fill-rule="evenodd"/>
	<path id="Rectangle" d="M94.63 40.82L101.09 39.66L103.9 55.33L97.45 56.49L94.63 40.82Z" fill="#D2D4D8" fill-opacity="1.000000" fill-rule="evenodd"/>
	<path id="Path" d="M86.86 20.5L60.6 24.99C60.51 25.01 60.43 24.95 60.41 24.86L60 22.68C59.98 22.59 60.04 22.51 60.13 22.49L86.39 18C86.48 17.98 86.56 18.04 86.58 18.13L86.99 20.31C87.01 20.4 86.95 20.48 86.86 20.5Z" fill="#D2D4D8" fill-opacity="1.000000" fill-rule="evenodd"/>
	<path id="Path" d="M98.86 23.46L60.59 29.99C60.51 30.01 60.42 29.95 60.4 29.86L60 27.72C59.98 27.63 60.04 27.55 60.13 27.53L98.4 21C98.49 20.98 98.57 21.04 98.59 21.13L98.99 23.28C99.01 23.36 98.95 23.44 98.86 23.46Z" fill="#D2D4D8" fill-opacity="1.000000" fill-rule="evenodd"/>
	<path id="Path" d="M105.86 26.5L62.6 33.99C62.51 34.01 62.42 33.95 62.4 33.86L62 31.68C61.98 31.59 62.04 31.51 62.13 31.49L105.39 24C105.48 23.98 105.57 24.04 105.59 24.13L105.99 26.31C106.01 26.4 105.95 26.48 105.86 26.5Z" fill="#D2D4D8" fill-opacity="1.000000" fill-rule="evenodd"/>
	<path id="Rectangle" d="M69.45 65.44L97.66 60.38C98.37 60.25 99.06 60.72 99.18 61.44C99.31 62.16 98.84 62.84 98.12 62.97L69.92 68.03C69.2 68.16 68.52 67.69 68.39 66.97C68.26 66.25 68.74 65.57 69.45 65.44Z" fill="#D2D4D8" fill-opacity="1.000000" fill-rule="evenodd"/>
	<path id="Path" d="M112.86 66.5L69.6 73.99C69.51 74.01 69.42 73.95 69.4 73.86L69 71.68C68.98 71.59 69.04 71.51 69.13 71.49L112.39 64C112.48 63.98 112.57 64.04 112.59 64.13L112.99 66.31C113.01 66.4 112.95 66.48 112.86 66.5Z" fill="#D2D4D8" fill-opacity="1.000000" fill-rule="evenodd"/>
	<path id="Path" d="M85.85 36.37L63.6 39.99C63.51 40.01 63.42 39.95 63.41 39.87L63 37.8C62.98 37.71 63.04 37.64 63.13 37.62L85.39 34C85.48 33.98 85.57 34.04 85.58 34.12L85.99 36.19C86.01 36.28 85.94 36.36 85.85 36.37Z" fill="#D2D4D8" fill-opacity="1.000000" fill-rule="evenodd"/>
	<path id="Path" d="M106.86 32.57L87.6 35.99C87.51 36.01 87.42 35.95 87.4 35.86L87 33.61C86.98 33.53 87.04 33.44 87.13 33.42L106.4 30C106.49 29.98 106.57 30.04 106.59 30.13L106.99 32.37C107.01 32.46 106.95 32.55 106.86 32.57Z" fill="#D2D4D8" fill-opacity="1.000000" fill-rule="evenodd"/>
	<path id="Rectangle" d="M89.43 16.48L102.49 14.14C103.2 14.01 103.89 14.49 104.02 15.2C104.15 15.92 103.67 16.6 102.95 16.73L89.89 19.08C89.18 19.21 88.49 18.73 88.36 18.01C88.23 17.3 88.71 16.61 89.43 16.48Z" fill="#D2D4D8" fill-opacity="1.000000" fill-rule="evenodd"/>
	<g opacity="0.200000">
		<g opacity="0.200000">
			<path id="Path" d="M140.74 94.98L89.24 78.25C89.15 78.23 89.07 78.16 89.03 78.08C88.99 78 88.98 77.91 89.01 77.82L109.81 15.23C109.87 15.05 110.07 14.95 110.26 15.01L161.75 31.74C161.94 31.8 162.04 31.99 161.98 32.17L141.17 94.76C141.11 94.94 140.92 95.04 140.74 94.98Z" fill="#3D3D3D" fill-opacity="1.000000" fill-rule="evenodd"/>
		</g>
		<g opacity="0.200000">
			<path id="Path" d="M136.84 34.8L129.38 47.57L115.26 52.26C117.37 58.48 123.39 62.56 130.01 62.29C136.64 62.01 142.29 57.45 143.87 51.08C145.45 44.71 142.59 38.08 136.84 34.8Z" fill="#3D3D3D" fill-opacity="1.000000" fill-rule="evenodd"/>
		</g>
		<g opacity="0.200000">
			<path id="Path" d="M136.06 32.33C131.76 29.88 126.5 29.7 122.04 31.87L128.6 45.09L136.06 32.33Z" fill="#3D3D3D" fill-opacity="1.000000" fill-rule="evenodd"/>
		</g>
		<g opacity="0.200000">
			<path id="Path" d="M120.39 33.12C113.66 36.37 110.42 44.05 112.83 51.05L126.95 46.36L120.39 33.12Z" fill="#3D3D3D" fill-opacity="1.000000" fill-rule="evenodd"/>
		</g>
		<g opacity="0.200000">
			<path id="Path" d="M119.85 67.12L101.3 61.1C101.27 61.09 101.23 61.06 101.22 61.03C101.2 60.99 101.19 60.95 101.21 60.91L101.84 59C101.85 58.96 101.88 58.93 101.92 58.91C101.95 58.89 102 58.89 102.03 58.9L120.58 64.93C120.62 64.94 120.65 64.97 120.67 65C120.68 65.04 120.69 65.08 120.67 65.12L120.04 67.03C120.02 67.07 120 67.1 119.96 67.12C119.92 67.13 119.88 67.13 119.85 67.12Z" fill="#3D3D3D" fill-opacity="1.000000" fill-rule="evenodd"/>
		</g>
		<g opacity="0.200000">
			<path id="Path" d="M128.18 74.47L99.91 65.29C99.87 65.28 99.84 65.26 99.82 65.22C99.81 65.19 99.8 65.15 99.82 65.11L100.45 63.19C100.46 63.16 100.49 63.12 100.53 63.11C100.56 63.09 100.61 63.09 100.64 63.1L128.91 72.28C128.99 72.3 129.03 72.39 129 72.46L128.37 74.38C128.36 74.42 128.33 74.45 128.29 74.47C128.26 74.48 128.21 74.49 128.18 74.47Z" fill="#3D3D3D" fill-opacity="1.000000" fill-rule="evenodd"/>
		</g>
		<g opacity="0.200000">
			<path id="Path" d="M117.25 76.26L98.31 70.11C98.23 70.09 98.19 70 98.21 69.93L98.85 68.01C98.86 67.98 98.89 67.94 98.92 67.93C98.96 67.91 99 67.91 99.04 67.92L117.98 74.07C118.06 74.1 118.1 74.18 118.07 74.26L117.44 76.17C117.41 76.25 117.33 76.29 117.25 76.26Z" fill="#3D3D3D" fill-opacity="1.000000" fill-rule="evenodd"/>
		</g>
		<g opacity="0.200000">
			<path id="Rectangle" d="M131.62 73.16L140.07 75.91C140.68 76.1 141 76.75 140.81 77.35C140.81 77.36 140.81 77.36 140.81 77.36C140.61 77.97 139.95 78.3 139.34 78.1L130.89 75.35C130.29 75.16 129.96 74.51 130.15 73.91C130.15 73.91 130.15 73.9 130.15 73.9C130.36 73.29 131.01 72.96 131.62 73.16Z" fill="#3D3D3D" fill-opacity="1.000000" fill-rule="evenodd"/>
		</g>
		<g opacity="0.200000">
			<path id="Rectangle" d="M123.5 65.88L141.47 71.71C142.07 71.91 142.4 72.56 142.2 73.16C142.2 73.16 142.2 73.16 142.2 73.17C142 73.77 141.35 74.1 140.74 73.91L122.77 68.07C122.17 67.87 121.84 67.23 122.03 66.62C122.03 66.62 122.03 66.62 122.03 66.62C122.24 66.01 122.89 65.68 123.5 65.88Z" fill="#3D3D3D" fill-opacity="1.000000" fill-rule="evenodd"/>
		</g>
	</g>
	<g filter="url(#filter_2_306_dd)">
		<path id="Vector" d="M142.73 87.98L91.23 71.25C91.05 71.19 90.95 71 91.01 70.82L111.82 8.23C111.88 8.05 112.07 7.95 112.26 8.01L163.75 24.74C163.94 24.8 164.04 24.99 163.98 25.17L143.17 87.76C143.11 87.94 142.92 88.04 142.73 87.98Z" fill="#000000" fill-opacity="1.000000" fill-rule="evenodd"/>
	</g>
	<path id="Vector" d="M142.73 87.98L91.23 71.25C91.05 71.19 90.95 71 91.01 70.82L111.82 8.23C111.88 8.05 112.07 7.95 112.26 8.01L163.75 24.74C163.94 24.8 164.04 24.99 163.98 25.17L143.17 87.76C143.11 87.94 142.92 88.04 142.73 87.98Z" fill="#FFFFFF" fill-opacity="1.000000" fill-rule="evenodd"/>
	<path id="Path" d="M138.81 28L131.61 40.99L118 45.78C120.03 52.1 125.83 56.26 132.22 55.98C138.61 55.7 144.05 51.05 145.58 44.57C147.1 38.09 144.34 31.33 138.81 28Z" fill="#D2D4D8" fill-opacity="1.000000" fill-rule="evenodd"/>
	<g opacity="0.490782">
		<path id="Path" d="M138 26.14C137.04 25.59 136.04 25.14 134.99 24.8C131.04 23.49 126.73 23.79 123 25.64L130.01 40L138 26.14Z" fill="#3182CE" fill-opacity="1.000000" fill-rule="evenodd"/>
	</g>
	<path id="Path" d="M122.96 27C115.74 30.25 112.26 37.96 114.84 45L130 40.28L122.96 27Z" fill="#D2D4D8" fill-opacity="1.000000" fill-rule="evenodd"/>
	<path id="Path" d="M123.14 59.99L104.1 54.14C104.06 54.13 104.03 54.1 104.01 54.07C103.99 54.03 103.99 53.99 104 53.95L104.66 52.1C104.67 52.06 104.7 52.03 104.74 52.01C104.77 51.99 104.82 51.99 104.85 52L123.89 57.85C123.93 57.86 123.96 57.89 123.98 57.92C124 57.96 124 58 123.99 58.04L123.33 59.89C123.32 59.93 123.29 59.96 123.26 59.98C123.22 60 123.18 60 123.14 59.99Z" fill="#D4E8E8" fill-opacity="1.000000" fill-rule="evenodd"/>
	<path id="Path" d="M131.17 67.99L103.1 59.13C103.06 59.11 103.03 59.09 103.01 59.05C102.99 59.02 102.99 58.98 103 58.94L103.64 57.1C103.65 57.06 103.68 57.03 103.71 57.01C103.75 56.99 103.79 56.99 103.83 57L131.89 65.86C131.93 65.88 131.96 65.9 131.98 65.93C132 65.97 132 66.01 131.99 66.04L131.36 67.89C131.35 67.93 131.32 67.96 131.28 67.98C131.25 68 131.2 68 131.17 67.99Z" fill="#D4E8E8" fill-opacity="1.000000" fill-rule="evenodd"/>
	<path id="Path" d="M119.16 69.99L100.1 64.1C100.06 64.09 100.03 64.07 100.01 64.03C99.99 64 99.99 63.96 100 63.92L100.64 62.09C100.65 62.06 100.68 62.03 100.72 62.01C100.75 61.99 100.8 61.99 100.84 62L119.89 67.89C119.97 67.91 120.01 67.99 119.99 68.07L119.35 69.9C119.34 69.93 119.31 69.96 119.27 69.98C119.24 70 119.19 70 119.16 69.99Z" fill="#D4E8E8" fill-opacity="1.000000" fill-rule="evenodd"/>
	<path id="Rectangle" d="M134.09 66.65L142.49 69.41C143.1 69.61 143.43 70.27 143.23 70.88C143.03 71.49 142.38 71.82 141.77 71.62L133.36 68.86C132.75 68.66 132.42 68 132.62 67.39C132.82 66.78 133.48 66.45 134.09 66.65Z" fill="#D4E8E8" fill-opacity="1.000000" fill-rule="evenodd"/>
	<path id="Path" d="M144.16 66.99L124.1 60.28C124.06 60.27 124.03 60.24 124.01 60.2C123.99 60.17 123.99 60.13 124 60.09L124.64 58.1C124.67 58.02 124.75 57.98 124.83 58L144.89 64.71C144.93 64.72 144.96 64.75 144.98 64.79C145 64.82 145 64.86 144.99 64.9L144.35 66.89C144.32 66.97 144.24 67.01 144.16 66.99Z" fill="#D4E8E8" fill-opacity="1.000000" fill-rule="evenodd"/>
	<g filter="url(#filter_2_317_dd)">
		<path id="Vector" d="M144 56.52L144 117.13C144 118.72 142.66 120 141.02 120L67.98 120C66.33 120 65 118.72 65 117.13L65 47.86C65 46.28 66.34 45 67.98 45L84.39 45C85.41 44.99 86.36 45.5 86.92 46.36L90.7 52.28C91.26 53.14 92.21 53.66 93.24 53.65L141.02 53.65C142.66 53.65 144 54.94 144 56.52Z" fill="#000000" fill-opacity="1.000000" fill-rule="evenodd"/>
	</g>
	<path id="Vector" d="M144 56.52L144 117.13C144 118.72 142.66 120 141.02 120L67.98 120C66.33 120 65 118.72 65 117.13L65 47.86C65 46.28 66.34 45 67.98 45L84.39 45C85.41 44.99 86.36 45.5 86.92 46.36L90.7 52.28C91.26 53.14 92.21 53.66 93.24 53.65L141.02 53.65C142.66 53.65 144 54.94 144 56.52Z" fill="url(#paint_linear_2_318_0)" fill-opacity="1.000000" fill-rule="evenodd"/>
	<path id="Vector" d="M144 56.52L144 117.13C144 118.72 142.66 120 141.02 120L67.98 120C66.33 120 65 118.72 65 117.13L65 47.86C65 46.28 66.34 45 67.98 45L84.39 45C85.41 44.99 86.36 45.5 86.92 46.36L90.7 52.28C91.26 53.14 92.21 53.66 93.24 53.65L141.02 53.65C142.66 53.65 144 54.94 144 56.52Z" fill="#3182CE" fill-opacity="1.000000" fill-rule="evenodd"/>
	<path id="Rectangle" d="M70.55 55L137.45 55C138.85 55 140 56.14 140 57.55L140 116.45C140 117.85 138.85 119 137.45 119L70.55 119C69.14 119 68 117.85 68 116.45L68 57.55C68 56.14 69.14 55 70.55 55Z" fill="#EFEFEF" fill-opacity="1.000000" fill-rule="evenodd"/>
	<path id="Rectangle" d="M70.55 56L137.45 56C138.85 56 140 57.14 140 58.55L140 117.45C140 118.85 138.85 120 137.45 120L70.55 120C69.14 120 68 118.85 68 117.45L68 58.55C68 57.14 69.14 56 70.55 56Z" fill="#FFFFFF" fill-opacity="1.000000" fill-rule="evenodd"/>
	<g opacity="0.200000">
		<path id="Path" d="M144 58L144 112.02L143.45 116.69C143.27 118.25 142.17 119.55 140.67 120L67.98 120C66.33 120 65 118.71 65 117.12L65 67.48L77.78 67.48C79.35 67.48 80.76 66.55 81.38 65.1L83.4 60.39C84.01 58.94 85.43 57.99 86.99 58L144 58Z" fill="#3D3D3D" fill-opacity="1.000000" fill-rule="evenodd"/>
	</g>
	<path id="Path" d="M144.68 117.52C144.45 119.5 142.79 121 140.82 121L68.08 121C66.11 121 64.45 119.5 64.22 117.52L59.02 72.85C58.89 71.73 59.24 70.62 59.98 69.78C60.71 68.94 61.77 68.46 62.88 68.46L79.51 68.46C81.06 68.46 82.47 67.52 83.08 66.08L85.08 61.37C85.7 59.93 87.1 59 88.65 59L147.11 59C148.22 58.99 149.27 59.47 150.01 60.31C150.75 61.15 151.1 62.27 150.97 63.39L144.68 117.52Z" fill="#3182CE" fill-opacity="1.000000" fill-rule="evenodd"/>
</svg>
